<svg width="30" height="25" viewBox="0 0 30 25" fill="none" xmlns="http://www.w3.org/2000/svg"><path d="M26.367 21.87c0 1.349-1.303 2.43-2.93 2.43-1.626 0-2.93-1.094-2.93-2.43 0-1.349 1.304-2.43 2.93-2.43 1.627 0 2.93 1.093 2.93 2.43ZM8.79 19.44c-1.626 0-2.93 1.081-2.93 2.43 0 1.336 1.304 2.43 2.93 2.43 1.626 0 2.93-1.081 2.93-2.43 0-1.349-1.304-2.43-2.93-2.43Zm.293-4.095-.044.146c0 .17.161.304.366.304h16.963v2.43H8.79c-1.626 0-2.93-1.094-2.93-2.43 0-.425.132-.826.352-1.166l1.992-2.977L2.93 2.43H0V0h4.79l1.377 2.43h21.665c.806 0 1.465.547 1.465 1.215 0 .207-.073.413-.176.608l-5.244 7.86c-.498.742-1.465 1.252-2.563 1.252H10.4l-1.318 1.98Zm1.904-4.41h2.198v-2.43H9.609l1.377 2.43Zm3.662-2.43v2.43h4.395v-2.43h-4.395Zm4.395-1.215V4.86h-4.395v2.43h4.395ZM23.6 8.505h-3.091v2.43h1.465l1.626-2.43Zm2.446-3.645h-5.537v2.43h3.911l1.626-2.43Zm-18.516 0 1.377 2.43h4.278V4.86H7.529Z" fill="#fff"/></svg>