<svg width="30" height="24" viewBox="0 0 30 24" fill="none" xmlns="http://www.w3.org/2000/svg"><path d="M6.73 13.333c-3.2 0-5.791 2.387-5.791 5.334C.939 21.613 3.53 24 6.729 24c3.2 0 5.792-2.387 5.792-5.333 0-2.947-2.592-5.334-5.791-5.334Zm0 8c-1.593 0-2.896-1.2-2.896-2.666C3.834 17.2 5.137 16 6.73 16c1.592 0 2.895 1.2 2.895 2.667 0 1.466-1.303 2.666-2.895 2.666ZM6.73 0C3.53 0 .939 2.387.939 5.333c0 2.947 2.591 5.334 5.79 5.334 3.2 0 5.792-2.387 5.792-5.334C12.52 2.387 9.929 0 6.73 0Zm8.686 2.667h14.478v2.666H15.416V2.667Zm0 18.666v-2.666h14.478v2.666H15.416Zm0-10.666h14.478v2.666H15.416v-2.666Z" fill="#fff"/></svg>