<svg width="28" height="26" viewBox="0 0 28 26" fill="none" xmlns="http://www.w3.org/2000/svg"><path d="M14.215 7.8c1.466 0 2.872.548 3.908 1.523 1.037.975 1.62 2.298 1.62 3.677 0 1.38-.583 2.702-1.62 3.677-1.036.975-2.442 1.523-3.908 1.523-1.466 0-2.872-.548-3.908-1.523C9.27 15.702 8.688 14.379 8.688 13c0-1.38.582-2.702 1.619-3.677 1.036-.975 2.442-1.523 3.908-1.523Zm0 2.6c-.733 0-1.436.274-1.954.761A2.525 2.525 0 0 0 11.45 13c0 .69.292 1.35.81 1.838a2.854 2.854 0 0 0 1.954.762c.733 0 1.436-.274 1.954-.761.518-.488.81-1.15.81-1.839 0-.69-.292-1.35-.81-1.838a2.854 2.854 0 0 0-1.954-.762ZM11.451 26c-.345 0-.635-.234-.69-.546l-.512-3.445c-.87-.325-1.616-.767-2.335-1.287l-3.44 1.313c-.304.104-.677 0-.843-.286L.867 17.251a.616.616 0 0 1 .166-.832l2.916-2.158L3.852 13l.097-1.3-2.916-2.119a.616.616 0 0 1-.166-.832l2.764-4.498a.7.7 0 0 1 .843-.286l3.44 1.3c.719-.507 1.465-.949 2.335-1.274l.512-3.445c.055-.312.345-.546.69-.546h5.528c.345 0 .635.234.69.546l.512 3.445c.87.325 1.616.767 2.335 1.274l3.44-1.3a.7.7 0 0 1 .843.286l2.764 4.498a.616.616 0 0 1-.166.832L24.482 11.7l.096 1.3-.096 1.3 2.915 2.119a.616.616 0 0 1 .166.832l-2.764 4.498a.7.7 0 0 1-.843.286l-3.44-1.3c-.719.507-1.465.949-2.335 1.274l-.512 3.445c-.055.312-.345.546-.69.546h-5.527ZM13.18 2.6l-.511 3.393c-1.659.325-3.123 1.157-4.187 2.314L5.15 6.955l-1.037 1.69L7.03 10.66a6.812 6.812 0 0 0 0 4.68L4.1 17.368l1.037 1.69 3.358-1.352a7.633 7.633 0 0 0 4.159 2.288l.51 3.406h2.101l.511-3.393a7.734 7.734 0 0 0 4.16-2.301l3.357 1.352 1.037-1.69-2.93-2.015a6.848 6.848 0 0 0 0-4.693l2.916-2.015-1.037-1.69-3.33 1.352a7.6 7.6 0 0 0-4.186-2.301L15.25 2.6h-2.07Z" fill="#fff"/></svg>